<mxfile host="app.diagrams.net" modified="2024-02-02T20:19:33.060Z" agent="Mozilla/5.0 (Windows NT 10.0; Win64; x64) AppleWebKit/537.36 (KHTML, like Gecko) Chrome/121.0.0.0 Safari/537.36" etag="--ItNRyUm0FU-VtS46TX" version="23.1.0" type="github">
  <diagram name="Page-1" id="O8G4t7uO2o9kU40y7iQ7">
    <mxGraphModel dx="1444" dy="835" grid="1" gridSize="10" guides="1" tooltips="1" connect="1" arrows="1" fold="1" page="1" pageScale="1" pageWidth="850" pageHeight="1100" math="0" shadow="0">
      <root>
        <mxCell id="0" />
        <mxCell id="1" parent="0" />
        <mxCell id="v7Y28q6XLG3SF74MW_tv-1" value="&lt;i style=&quot;border-color: var(--border-color); color: rgb(51, 51, 51); font-size: 16px;&quot;&gt;Height,&amp;nbsp;&lt;br style=&quot;border-color: var(--border-color);&quot;&gt;Room Length,&amp;nbsp;&lt;br style=&quot;border-color: var(--border-color);&quot;&gt;Room Depth,&amp;nbsp;&lt;br style=&quot;border-color: var(--border-color);&quot;&gt;Closet Length,&amp;nbsp;&lt;br style=&quot;border-color: var(--border-color);&quot;&gt;Closet Depth,&amp;nbsp;&lt;br style=&quot;border-color: var(--border-color);&quot;&gt;Main Door Height,&amp;nbsp;&lt;br style=&quot;border-color: var(--border-color);&quot;&gt;Main Door Width,&amp;nbsp;&lt;br style=&quot;border-color: var(--border-color);&quot;&gt;Closet Door Height,&amp;nbsp;&lt;br style=&quot;border-color: var(--border-color);&quot;&gt;Closet Door Width,&amp;nbsp;&lt;br style=&quot;border-color: var(--border-color);&quot;&gt;Window Height,&amp;nbsp;&lt;br style=&quot;border-color: var(--border-color);&quot;&gt;Window Width&lt;/i&gt;" style="shape=parallelogram;perimeter=parallelogramPerimeter;whiteSpace=wrap;html=1;fixedSize=1;fillColor=#f5f5f5;fontColor=#333333;strokeColor=#666666;" vertex="1" parent="1">
          <mxGeometry x="30" y="20" width="170" height="230" as="geometry" />
        </mxCell>
        <mxCell id="v7Y28q6XLG3SF74MW_tv-4" value="Start" style="ellipse;whiteSpace=wrap;html=1;fillColor=#d5e8d4;strokeColor=#82b366;" vertex="1" parent="1">
          <mxGeometry x="55" y="290" width="120" height="80" as="geometry" />
        </mxCell>
        <mxCell id="v7Y28q6XLG3SF74MW_tv-5" value="&lt;i&gt;Sqft per Gallon&lt;/i&gt;&amp;nbsp;is 400" style="rounded=0;whiteSpace=wrap;html=1;" vertex="1" parent="1">
          <mxGeometry x="55" y="410" width="120" height="60" as="geometry" />
        </mxCell>
        <mxCell id="v7Y28q6XLG3SF74MW_tv-6" value="Calculate Room Wall Area" style="shape=process;whiteSpace=wrap;html=1;backgroundOutline=1;" vertex="1" parent="1">
          <mxGeometry x="55" y="740" width="120" height="60" as="geometry" />
        </mxCell>
        <mxCell id="v7Y28q6XLG3SF74MW_tv-7" value="Set &lt;i&gt;Main Area&lt;/i&gt;&amp;nbsp;to &lt;i&gt;Result&lt;/i&gt;" style="rounded=0;whiteSpace=wrap;html=1;" vertex="1" parent="1">
          <mxGeometry x="55" y="850" width="120" height="60" as="geometry" />
        </mxCell>
        <mxCell id="v7Y28q6XLG3SF74MW_tv-9" value="Set &lt;i&gt;Total Area&lt;/i&gt;&amp;nbsp;to &lt;i&gt;Main Area &lt;/i&gt;* &lt;i&gt;Closet Area&lt;/i&gt;&amp;nbsp;- &lt;i&gt;Free Area&lt;/i&gt;" style="rounded=0;whiteSpace=wrap;html=1;" vertex="1" parent="1">
          <mxGeometry x="230" y="630" width="120" height="60" as="geometry" />
        </mxCell>
        <mxCell id="v7Y28q6XLG3SF74MW_tv-10" value="Calculate Free Area" style="shape=process;whiteSpace=wrap;html=1;backgroundOutline=1;" vertex="1" parent="1">
          <mxGeometry x="55" y="520" width="120" height="60" as="geometry" />
        </mxCell>
        <mxCell id="v7Y28q6XLG3SF74MW_tv-11" value="Set &lt;i&gt;Free Area&lt;/i&gt;&amp;nbsp;to &lt;i&gt;Result&lt;/i&gt;" style="rounded=0;whiteSpace=wrap;html=1;" vertex="1" parent="1">
          <mxGeometry x="55" y="630" width="120" height="60" as="geometry" />
        </mxCell>
        <mxCell id="v7Y28q6XLG3SF74MW_tv-14" value="" style="curved=1;endArrow=classic;html=1;rounded=0;" edge="1" parent="1">
          <mxGeometry width="50" height="50" relative="1" as="geometry">
            <mxPoint x="190" y="880" as="sourcePoint" />
            <mxPoint x="220" y="440" as="targetPoint" />
            <Array as="points">
              <mxPoint x="230" y="880" />
              <mxPoint x="170" y="440" />
            </Array>
          </mxGeometry>
        </mxCell>
        <mxCell id="v7Y28q6XLG3SF74MW_tv-17" value="Calculate Room Wall Area" style="shape=process;whiteSpace=wrap;html=1;backgroundOutline=1;" vertex="1" parent="1">
          <mxGeometry x="230" y="410" width="120" height="60" as="geometry" />
        </mxCell>
        <mxCell id="v7Y28q6XLG3SF74MW_tv-18" value="Set &lt;i&gt;Closet Area&lt;/i&gt;&amp;nbsp;to &lt;i&gt;Result&lt;/i&gt;" style="rounded=0;whiteSpace=wrap;html=1;" vertex="1" parent="1">
          <mxGeometry x="230" y="520" width="120" height="60" as="geometry" />
        </mxCell>
        <mxCell id="v7Y28q6XLG3SF74MW_tv-19" value="Set &lt;i&gt;Gallons of Paint&amp;nbsp;&lt;/i&gt;&amp;nbsp;to &lt;i&gt;Total Area &lt;/i&gt;/ &lt;i&gt;Sqft per Gallon&lt;/i&gt;&amp;nbsp;* 2" style="rounded=0;whiteSpace=wrap;html=1;" vertex="1" parent="1">
          <mxGeometry x="230" y="740" width="120" height="60" as="geometry" />
        </mxCell>
        <mxCell id="v7Y28q6XLG3SF74MW_tv-20" value="Stop" style="ellipse;whiteSpace=wrap;html=1;fillColor=#f8cecc;strokeColor=#b85450;" vertex="1" parent="1">
          <mxGeometry x="230" y="840" width="120" height="80" as="geometry" />
        </mxCell>
        <mxCell id="v7Y28q6XLG3SF74MW_tv-21" value="&lt;i&gt;Gallons of Paint&lt;/i&gt;" style="shape=parallelogram;perimeter=parallelogramPerimeter;whiteSpace=wrap;html=1;fixedSize=1;fillColor=#f5f5f5;fontColor=#333333;strokeColor=#666666;" vertex="1" parent="1">
          <mxGeometry x="230" y="960" width="120" height="60" as="geometry" />
        </mxCell>
        <mxCell id="v7Y28q6XLG3SF74MW_tv-22" value="" style="endArrow=classic;html=1;rounded=0;" edge="1" parent="1">
          <mxGeometry width="50" height="50" relative="1" as="geometry">
            <mxPoint x="114.85" y="260" as="sourcePoint" />
            <mxPoint x="114.85" y="280" as="targetPoint" />
          </mxGeometry>
        </mxCell>
        <mxCell id="v7Y28q6XLG3SF74MW_tv-23" value="" style="endArrow=classic;html=1;rounded=0;" edge="1" parent="1">
          <mxGeometry width="50" height="50" relative="1" as="geometry">
            <mxPoint x="114.85" y="380" as="sourcePoint" />
            <mxPoint x="114.85" y="400" as="targetPoint" />
          </mxGeometry>
        </mxCell>
        <mxCell id="v7Y28q6XLG3SF74MW_tv-24" value="" style="endArrow=classic;html=1;rounded=0;" edge="1" parent="1">
          <mxGeometry width="50" height="50" relative="1" as="geometry">
            <mxPoint x="114.79" y="480" as="sourcePoint" />
            <mxPoint x="114.79" y="510" as="targetPoint" />
          </mxGeometry>
        </mxCell>
        <mxCell id="v7Y28q6XLG3SF74MW_tv-25" value="" style="endArrow=classic;html=1;rounded=0;" edge="1" parent="1">
          <mxGeometry width="50" height="50" relative="1" as="geometry">
            <mxPoint x="289.79" y="480" as="sourcePoint" />
            <mxPoint x="289.79" y="510" as="targetPoint" />
          </mxGeometry>
        </mxCell>
        <mxCell id="v7Y28q6XLG3SF74MW_tv-26" value="" style="endArrow=classic;html=1;rounded=0;" edge="1" parent="1">
          <mxGeometry width="50" height="50" relative="1" as="geometry">
            <mxPoint x="114.95" y="590" as="sourcePoint" />
            <mxPoint x="114.95" y="620" as="targetPoint" />
          </mxGeometry>
        </mxCell>
        <mxCell id="v7Y28q6XLG3SF74MW_tv-27" value="" style="endArrow=classic;html=1;rounded=0;" edge="1" parent="1">
          <mxGeometry width="50" height="50" relative="1" as="geometry">
            <mxPoint x="289.94" y="590" as="sourcePoint" />
            <mxPoint x="289.94" y="620" as="targetPoint" />
          </mxGeometry>
        </mxCell>
        <mxCell id="v7Y28q6XLG3SF74MW_tv-28" value="" style="endArrow=classic;html=1;rounded=0;" edge="1" parent="1">
          <mxGeometry width="50" height="50" relative="1" as="geometry">
            <mxPoint x="114" y="700" as="sourcePoint" />
            <mxPoint x="114" y="730" as="targetPoint" />
          </mxGeometry>
        </mxCell>
        <mxCell id="v7Y28q6XLG3SF74MW_tv-29" value="" style="endArrow=classic;html=1;rounded=0;" edge="1" parent="1">
          <mxGeometry width="50" height="50" relative="1" as="geometry">
            <mxPoint x="289" y="700" as="sourcePoint" />
            <mxPoint x="289" y="730" as="targetPoint" />
          </mxGeometry>
        </mxCell>
        <mxCell id="v7Y28q6XLG3SF74MW_tv-30" value="" style="endArrow=classic;html=1;rounded=0;" edge="1" parent="1">
          <mxGeometry width="50" height="50" relative="1" as="geometry">
            <mxPoint x="114.16" y="810" as="sourcePoint" />
            <mxPoint x="114.16" y="840" as="targetPoint" />
          </mxGeometry>
        </mxCell>
        <mxCell id="v7Y28q6XLG3SF74MW_tv-31" value="" style="endArrow=classic;html=1;rounded=0;" edge="1" parent="1">
          <mxGeometry width="50" height="50" relative="1" as="geometry">
            <mxPoint x="290" y="810" as="sourcePoint" />
            <mxPoint x="290" y="830" as="targetPoint" />
          </mxGeometry>
        </mxCell>
        <mxCell id="v7Y28q6XLG3SF74MW_tv-33" value="" style="endArrow=classic;html=1;rounded=0;" edge="1" parent="1">
          <mxGeometry width="50" height="50" relative="1" as="geometry">
            <mxPoint x="289.82" y="930" as="sourcePoint" />
            <mxPoint x="289.82" y="950" as="targetPoint" />
          </mxGeometry>
        </mxCell>
        <mxCell id="v7Y28q6XLG3SF74MW_tv-34" value="&lt;p style=&quot;line-height: 0%; font-size: 8px;&quot;&gt;&lt;font style=&quot;font-size: 8px;&quot;&gt;&lt;i&gt;Window Height&lt;/i&gt;&lt;/font&gt;&lt;/p&gt;&lt;p style=&quot;line-height: 0%; font-size: 8px;&quot;&gt;&lt;font style=&quot;font-size: 8px;&quot;&gt;&lt;i&gt;Window Width&lt;/i&gt;&lt;/font&gt;&lt;/p&gt;&lt;p style=&quot;line-height: 0%; font-size: 8px;&quot;&gt;&lt;font style=&quot;font-size: 8px;&quot;&gt;&lt;i&gt;Closet Door Height&lt;/i&gt;&lt;/font&gt;&lt;/p&gt;&lt;p style=&quot;line-height: 0%; font-size: 8px;&quot;&gt;&lt;font style=&quot;font-size: 8px;&quot;&gt;&lt;i&gt;Closet Door Width&lt;/i&gt;&lt;/font&gt;&lt;/p&gt;&lt;p style=&quot;line-height: 0%; font-size: 8px;&quot;&gt;&lt;font style=&quot;font-size: 8px;&quot;&gt;&lt;i&gt;Main Door Height&lt;/i&gt;&lt;/font&gt;&lt;/p&gt;&lt;p style=&quot;line-height: 0%; font-size: 8px;&quot;&gt;&lt;font style=&quot;font-size: 8px;&quot;&gt;&lt;i&gt;Main Door Width&lt;/i&gt;&lt;/font&gt;&lt;/p&gt;" style="text;html=1;strokeColor=none;fillColor=none;align=left;verticalAlign=middle;whiteSpace=wrap;rounded=0;" vertex="1" parent="1">
          <mxGeometry x="120" y="470" width="80" height="50" as="geometry" />
        </mxCell>
        <mxCell id="v7Y28q6XLG3SF74MW_tv-37" value="&lt;font style=&quot;font-size: 8px;&quot;&gt;&lt;i&gt;Result&lt;/i&gt;&lt;/font&gt;" style="text;html=1;strokeColor=none;fillColor=none;align=left;verticalAlign=middle;whiteSpace=wrap;rounded=0;" vertex="1" parent="1">
          <mxGeometry x="120" y="590" width="60" height="30" as="geometry" />
        </mxCell>
        <mxCell id="v7Y28q6XLG3SF74MW_tv-38" value="&lt;p style=&quot;line-height: 50%;&quot;&gt;&lt;span style=&quot;border-color: var(--border-color); color: rgb(51, 51, 51); text-align: center; font-size: 8px;&quot;&gt;&lt;i&gt;Height&lt;br style=&quot;border-color: var(--border-color);&quot;&gt;Room Length&amp;nbsp;&lt;br style=&quot;border-color: var(--border-color);&quot;&gt;Room Depth&lt;/i&gt;&lt;/span&gt;&lt;/p&gt;" style="text;html=1;strokeColor=none;fillColor=none;align=left;verticalAlign=middle;whiteSpace=wrap;rounded=0;" vertex="1" parent="1">
          <mxGeometry x="120" y="700" width="120" height="30" as="geometry" />
        </mxCell>
        <mxCell id="v7Y28q6XLG3SF74MW_tv-39" value="&lt;p style=&quot;line-height: 50%;&quot;&gt;&lt;font style=&quot;font-size: 8px;&quot;&gt;&lt;i&gt;Height&lt;br style=&quot;border-color: var(--border-color); color: rgb(51, 51, 51);&quot;&gt;&lt;span style=&quot;color: rgb(51, 51, 51);&quot;&gt;Closet Length&amp;nbsp;&lt;/span&gt;&lt;br style=&quot;border-color: var(--border-color); color: rgb(51, 51, 51);&quot;&gt;&lt;span style=&quot;color: rgb(51, 51, 51);&quot;&gt;Closet Depth&lt;/span&gt;&lt;/i&gt;&lt;/font&gt;&lt;/p&gt;" style="text;html=1;strokeColor=none;fillColor=none;align=left;verticalAlign=middle;whiteSpace=wrap;rounded=0;" vertex="1" parent="1">
          <mxGeometry x="210" y="700" width="60" height="30" as="geometry" />
        </mxCell>
        <mxCell id="v7Y28q6XLG3SF74MW_tv-40" value="&lt;font style=&quot;font-size: 8px;&quot;&gt;&lt;i&gt;Result&lt;/i&gt;&lt;/font&gt;" style="text;html=1;strokeColor=none;fillColor=none;align=left;verticalAlign=middle;whiteSpace=wrap;rounded=0;" vertex="1" parent="1">
          <mxGeometry x="120" y="810" width="60" height="30" as="geometry" />
        </mxCell>
        <mxCell id="v7Y28q6XLG3SF74MW_tv-41" value="&lt;font style=&quot;font-size: 8px;&quot;&gt;&lt;i&gt;Result&lt;/i&gt;&lt;/font&gt;" style="text;html=1;strokeColor=none;fillColor=none;align=left;verticalAlign=middle;whiteSpace=wrap;rounded=0;" vertex="1" parent="1">
          <mxGeometry x="300" y="480" width="60" height="30" as="geometry" />
        </mxCell>
        <mxCell id="v7Y28q6XLG3SF74MW_tv-42" value="Calculate Free Area" style="swimlane;whiteSpace=wrap;html=1;" vertex="1" parent="1">
          <mxGeometry x="310" y="30" width="480" height="330" as="geometry" />
        </mxCell>
        <mxCell id="v7Y28q6XLG3SF74MW_tv-43" value="Start" style="ellipse;whiteSpace=wrap;html=1;fillColor=#d5e8d4;strokeColor=#82b366;" vertex="1" parent="v7Y28q6XLG3SF74MW_tv-42">
          <mxGeometry x="20" y="130" width="120" height="80" as="geometry" />
        </mxCell>
        <mxCell id="v7Y28q6XLG3SF74MW_tv-44" value="&lt;p style=&quot;border-color: var(--border-color); text-align: left; line-height: 0px; font-size: 8px;&quot;&gt;&lt;font style=&quot;border-color: var(--border-color);&quot;&gt;&lt;span style=&quot;border-color: var(--border-color);&quot;&gt;&lt;i&gt;Window Height&lt;/i&gt;&lt;/span&gt;&lt;/font&gt;&lt;/p&gt;&lt;p style=&quot;border-color: var(--border-color); text-align: left; line-height: 0px; font-size: 8px;&quot;&gt;&lt;font style=&quot;border-color: var(--border-color);&quot;&gt;&lt;span style=&quot;border-color: var(--border-color);&quot;&gt;&lt;i&gt;Window Width&lt;/i&gt;&lt;/span&gt;&lt;/font&gt;&lt;/p&gt;&lt;p style=&quot;border-color: var(--border-color); text-align: left; line-height: 0px; font-size: 8px;&quot;&gt;&lt;font style=&quot;border-color: var(--border-color);&quot;&gt;&lt;span style=&quot;border-color: var(--border-color);&quot;&gt;&lt;i&gt;Closet Door Height&lt;/i&gt;&lt;/span&gt;&lt;/font&gt;&lt;/p&gt;&lt;p style=&quot;border-color: var(--border-color); text-align: left; line-height: 0px; font-size: 8px;&quot;&gt;&lt;font style=&quot;border-color: var(--border-color);&quot;&gt;&lt;span style=&quot;border-color: var(--border-color);&quot;&gt;&lt;i&gt;Closet Door Width&lt;/i&gt;&lt;/span&gt;&lt;/font&gt;&lt;/p&gt;&lt;p style=&quot;border-color: var(--border-color); text-align: left; line-height: 0px; font-size: 8px;&quot;&gt;&lt;font style=&quot;border-color: var(--border-color);&quot;&gt;&lt;span style=&quot;border-color: var(--border-color);&quot;&gt;&lt;i&gt;Main Door Height&lt;/i&gt;&lt;/span&gt;&lt;/font&gt;&lt;/p&gt;&lt;p style=&quot;border-color: var(--border-color); text-align: left; line-height: 0px; font-size: 8px;&quot;&gt;&lt;font style=&quot;border-color: var(--border-color);&quot;&gt;&lt;span style=&quot;border-color: var(--border-color);&quot;&gt;&lt;i&gt;Main Door Width&lt;/i&gt;&lt;/span&gt;&lt;/font&gt;&lt;/p&gt;" style="shape=parallelogram;perimeter=parallelogramPerimeter;whiteSpace=wrap;html=1;fixedSize=1;fillColor=#f5f5f5;fontColor=#333333;strokeColor=#666666;" vertex="1" parent="v7Y28q6XLG3SF74MW_tv-42">
          <mxGeometry x="20" y="40" width="120" height="60" as="geometry" />
        </mxCell>
        <mxCell id="v7Y28q6XLG3SF74MW_tv-45" value="Set &lt;i&gt;Closet Door &lt;/i&gt;to &lt;i&gt;Closet Door Height &lt;/i&gt;* &lt;i&gt;Closet Door Width * 2&lt;/i&gt;" style="rounded=0;whiteSpace=wrap;html=1;" vertex="1" parent="v7Y28q6XLG3SF74MW_tv-42">
          <mxGeometry x="20" y="240" width="120" height="60" as="geometry" />
        </mxCell>
        <mxCell id="v7Y28q6XLG3SF74MW_tv-46" value="Set &lt;i&gt;Main Door&amp;nbsp;&lt;/i&gt;to &lt;i&gt;Main Door Height &lt;/i&gt;* &lt;i&gt;Main Door Width&lt;/i&gt;" style="rounded=0;whiteSpace=wrap;html=1;" vertex="1" parent="v7Y28q6XLG3SF74MW_tv-42">
          <mxGeometry x="180" y="40" width="120" height="60" as="geometry" />
        </mxCell>
        <mxCell id="v7Y28q6XLG3SF74MW_tv-47" value="Set &lt;i&gt;Window Size&lt;/i&gt;&amp;nbsp;to &lt;i&gt;Window Height &lt;/i&gt;* &lt;i&gt;Window Width&lt;/i&gt;" style="rounded=0;whiteSpace=wrap;html=1;" vertex="1" parent="v7Y28q6XLG3SF74MW_tv-42">
          <mxGeometry x="180" y="140" width="120" height="60" as="geometry" />
        </mxCell>
        <mxCell id="v7Y28q6XLG3SF74MW_tv-49" value="Set &lt;i&gt;Free Area&lt;/i&gt;&amp;nbsp;to &lt;i&gt;Closet Door + Main Door + Window Size&lt;/i&gt;" style="rounded=0;whiteSpace=wrap;html=1;" vertex="1" parent="v7Y28q6XLG3SF74MW_tv-42">
          <mxGeometry x="180" y="240" width="120" height="60" as="geometry" />
        </mxCell>
        <mxCell id="v7Y28q6XLG3SF74MW_tv-50" value="Stop" style="ellipse;whiteSpace=wrap;html=1;fillColor=#f8cecc;strokeColor=#b85450;" vertex="1" parent="v7Y28q6XLG3SF74MW_tv-42">
          <mxGeometry x="340" y="230" width="120" height="80" as="geometry" />
        </mxCell>
        <mxCell id="v7Y28q6XLG3SF74MW_tv-51" value="&lt;i&gt;Misc. Area&lt;/i&gt;" style="shape=parallelogram;perimeter=parallelogramPerimeter;whiteSpace=wrap;html=1;fixedSize=1;fillColor=#f5f5f5;fontColor=#333333;strokeColor=#666666;" vertex="1" parent="v7Y28q6XLG3SF74MW_tv-42">
          <mxGeometry x="340" y="140" width="120" height="60" as="geometry" />
        </mxCell>
        <mxCell id="v7Y28q6XLG3SF74MW_tv-58" value="" style="endArrow=classic;html=1;rounded=0;" edge="1" parent="v7Y28q6XLG3SF74MW_tv-42">
          <mxGeometry width="50" height="50" relative="1" as="geometry">
            <mxPoint x="239.57999999999998" y="210" as="sourcePoint" />
            <mxPoint x="239.57999999999998" y="230" as="targetPoint" />
          </mxGeometry>
        </mxCell>
        <mxCell id="v7Y28q6XLG3SF74MW_tv-59" value="" style="endArrow=classic;html=1;rounded=0;" edge="1" parent="v7Y28q6XLG3SF74MW_tv-42">
          <mxGeometry width="50" height="50" relative="1" as="geometry">
            <mxPoint x="79.57999999999998" y="110" as="sourcePoint" />
            <mxPoint x="80" y="120" as="targetPoint" />
          </mxGeometry>
        </mxCell>
        <mxCell id="v7Y28q6XLG3SF74MW_tv-60" value="" style="endArrow=classic;html=1;rounded=0;" edge="1" parent="v7Y28q6XLG3SF74MW_tv-42">
          <mxGeometry width="50" height="50" relative="1" as="geometry">
            <mxPoint x="79.57999999999998" y="220" as="sourcePoint" />
            <mxPoint x="80" y="230" as="targetPoint" />
          </mxGeometry>
        </mxCell>
        <mxCell id="v7Y28q6XLG3SF74MW_tv-61" value="" style="endArrow=classic;html=1;rounded=0;" edge="1" parent="v7Y28q6XLG3SF74MW_tv-42">
          <mxGeometry width="50" height="50" relative="1" as="geometry">
            <mxPoint x="310" y="269.58" as="sourcePoint" />
            <mxPoint x="330" y="269.58" as="targetPoint" />
          </mxGeometry>
        </mxCell>
        <mxCell id="v7Y28q6XLG3SF74MW_tv-54" value="" style="endArrow=classic;html=1;rounded=0;" edge="1" parent="v7Y28q6XLG3SF74MW_tv-42">
          <mxGeometry width="50" height="50" relative="1" as="geometry">
            <mxPoint x="239.28999999999996" y="110" as="sourcePoint" />
            <mxPoint x="239.28999999999996" y="130" as="targetPoint" />
          </mxGeometry>
        </mxCell>
        <mxCell id="v7Y28q6XLG3SF74MW_tv-62" value="" style="endArrow=classic;html=1;rounded=0;" edge="1" parent="v7Y28q6XLG3SF74MW_tv-42">
          <mxGeometry width="50" height="50" relative="1" as="geometry">
            <mxPoint x="399.28999999999996" y="220" as="sourcePoint" />
            <mxPoint x="399.28999999999996" y="210" as="targetPoint" />
          </mxGeometry>
        </mxCell>
        <mxCell id="v7Y28q6XLG3SF74MW_tv-63" value="" style="curved=1;endArrow=classic;html=1;rounded=0;" edge="1" parent="v7Y28q6XLG3SF74MW_tv-42">
          <mxGeometry width="50" height="50" relative="1" as="geometry">
            <mxPoint x="150" y="270" as="sourcePoint" />
            <mxPoint x="170" y="70" as="targetPoint" />
            <Array as="points">
              <mxPoint x="200" y="230" />
              <mxPoint x="120" y="100" />
            </Array>
          </mxGeometry>
        </mxCell>
        <mxCell id="v7Y28q6XLG3SF74MW_tv-64" value="Calculate Room Wall Area" style="swimlane;whiteSpace=wrap;html=1;" vertex="1" parent="1">
          <mxGeometry x="400" y="410" width="400" height="440" as="geometry" />
        </mxCell>
        <mxCell id="v7Y28q6XLG3SF74MW_tv-70" value="&lt;i&gt;Height&lt;br&gt;Length&lt;br&gt;Depth&lt;/i&gt;" style="shape=parallelogram;perimeter=parallelogramPerimeter;whiteSpace=wrap;html=1;fixedSize=1;fillColor=#f5f5f5;fontColor=#333333;strokeColor=#666666;" vertex="1" parent="v7Y28q6XLG3SF74MW_tv-64">
          <mxGeometry x="40" y="50" width="120" height="60" as="geometry" />
        </mxCell>
        <mxCell id="v7Y28q6XLG3SF74MW_tv-71" value="Start" style="ellipse;whiteSpace=wrap;html=1;fillColor=#d5e8d4;strokeColor=#82b366;" vertex="1" parent="v7Y28q6XLG3SF74MW_tv-64">
          <mxGeometry x="240" y="40" width="120" height="80" as="geometry" />
        </mxCell>
        <mxCell id="v7Y28q6XLG3SF74MW_tv-72" value="Set &lt;i&gt;Lengthwise Area &lt;/i&gt;to &lt;i&gt;Length &lt;/i&gt;* &lt;i&gt;Height&lt;/i&gt;" style="rounded=0;whiteSpace=wrap;html=1;" vertex="1" parent="v7Y28q6XLG3SF74MW_tv-64">
          <mxGeometry x="40" y="160" width="120" height="60" as="geometry" />
        </mxCell>
        <mxCell id="v7Y28q6XLG3SF74MW_tv-73" value="Set &lt;i&gt;Depthwise Area &lt;/i&gt;to &lt;i&gt;Depth&amp;nbsp;&lt;/i&gt;* &lt;i&gt;Height&lt;/i&gt;" style="rounded=0;whiteSpace=wrap;html=1;" vertex="1" parent="v7Y28q6XLG3SF74MW_tv-64">
          <mxGeometry x="240" y="160" width="120" height="60" as="geometry" />
        </mxCell>
        <mxCell id="v7Y28q6XLG3SF74MW_tv-74" value="Set &lt;i&gt;Total Area&lt;/i&gt;&amp;nbsp;to &lt;i&gt;Lengthwise Area&lt;/i&gt;&amp;nbsp;+ &lt;i&gt;Depthwise Area&lt;/i&gt;" style="rounded=0;whiteSpace=wrap;html=1;" vertex="1" parent="v7Y28q6XLG3SF74MW_tv-64">
          <mxGeometry x="240" y="260" width="120" height="60" as="geometry" />
        </mxCell>
        <mxCell id="v7Y28q6XLG3SF74MW_tv-76" value="Stop" style="ellipse;whiteSpace=wrap;html=1;fillColor=#f8cecc;strokeColor=#b85450;" vertex="1" parent="v7Y28q6XLG3SF74MW_tv-64">
          <mxGeometry x="40" y="255" width="120" height="80" as="geometry" />
        </mxCell>
        <mxCell id="v7Y28q6XLG3SF74MW_tv-77" value="" style="curved=1;endArrow=classic;html=1;rounded=0;" edge="1" parent="v7Y28q6XLG3SF74MW_tv-64">
          <mxGeometry width="50" height="50" relative="1" as="geometry">
            <mxPoint x="300" y="130" as="sourcePoint" />
            <mxPoint x="100" y="150" as="targetPoint" />
            <Array as="points">
              <mxPoint x="300" y="160" />
              <mxPoint x="100" y="120" />
            </Array>
          </mxGeometry>
        </mxCell>
        <mxCell id="v7Y28q6XLG3SF74MW_tv-83" value="&lt;i&gt;Total Area&lt;/i&gt;" style="shape=parallelogram;perimeter=parallelogramPerimeter;whiteSpace=wrap;html=1;fixedSize=1;fillColor=#f5f5f5;fontColor=#333333;strokeColor=#666666;" vertex="1" parent="v7Y28q6XLG3SF74MW_tv-64">
          <mxGeometry x="240" y="360" width="120" height="60" as="geometry" />
        </mxCell>
        <mxCell id="v7Y28q6XLG3SF74MW_tv-84" value="" style="curved=1;endArrow=classic;html=1;rounded=0;" edge="1" parent="v7Y28q6XLG3SF74MW_tv-64">
          <mxGeometry width="50" height="50" relative="1" as="geometry">
            <mxPoint x="100" y="340" as="sourcePoint" />
            <mxPoint x="300" y="350" as="targetPoint" />
            <Array as="points">
              <mxPoint x="90" y="380" />
              <mxPoint x="300" y="320" />
            </Array>
          </mxGeometry>
        </mxCell>
        <mxCell id="v7Y28q6XLG3SF74MW_tv-78" value="" style="endArrow=classic;html=1;rounded=0;" edge="1" parent="1">
          <mxGeometry width="50" height="50" relative="1" as="geometry">
            <mxPoint x="570" y="490" as="sourcePoint" />
            <mxPoint x="630" y="490" as="targetPoint" />
          </mxGeometry>
        </mxCell>
        <mxCell id="v7Y28q6XLG3SF74MW_tv-79" value="" style="endArrow=classic;html=1;rounded=0;" edge="1" parent="1">
          <mxGeometry width="50" height="50" relative="1" as="geometry">
            <mxPoint x="700" y="640" as="sourcePoint" />
            <mxPoint x="700" y="660" as="targetPoint" />
          </mxGeometry>
        </mxCell>
        <mxCell id="v7Y28q6XLG3SF74MW_tv-80" value="" style="endArrow=classic;html=1;rounded=0;" edge="1" parent="1">
          <mxGeometry width="50" height="50" relative="1" as="geometry">
            <mxPoint x="570" y="600" as="sourcePoint" />
            <mxPoint x="630" y="600" as="targetPoint" />
          </mxGeometry>
        </mxCell>
        <mxCell id="v7Y28q6XLG3SF74MW_tv-81" value="" style="endArrow=classic;html=1;rounded=0;" edge="1" parent="1">
          <mxGeometry width="50" height="50" relative="1" as="geometry">
            <mxPoint x="630" y="700" as="sourcePoint" />
            <mxPoint x="570" y="700" as="targetPoint" />
          </mxGeometry>
        </mxCell>
      </root>
    </mxGraphModel>
  </diagram>
</mxfile>
